<?xml version="1.0" standalone="no"?>
<!DOCTYPE svg PUBLIC "-//W3C//DTD SVG 20010904//EN"
 "http://www.w3.org/TR/2001/REC-SVG-20010904/DTD/svg10.dtd">
<svg version="1.0" xmlns="http://www.w3.org/2000/svg"
 width="200.000000pt" height="200.000000pt" viewBox="0 0 200.000000 200.000000"
 preserveAspectRatio="xMidYMid meet">

<g transform="translate(0.000000,200.000000) scale(0.100000,-0.100000)"
fill="#000000" stroke="none">
<path d="M801 1965 c-100 -23 -159 -44 -253 -92 -256 -131 -430 -349 -506
-633 -34 -131 -36 -333 -4 -463 46 -183 128 -333 256 -465 291 -301 741 -381
1124 -202 343 161 562 508 562 890 0 451 -296 830 -748 956 -81 23 -346 28
-431 9z m414 -95 c396 -101 675 -460 675 -870 0 -352 -203 -667 -526 -816
-240 -111 -548 -103 -780 20 -153 82 -253 173 -346 316 -151 234 -181 542 -78
807 27 71 115 223 128 223 4 0 66 -60 139 -132 l133 -133 0 -417 0 -417 103
-158 102 -157 5 558 5 558 104 -108 105 -108 113 119 113 120 0 -565 0 -565
105 160 105 160 0 410 0 410 130 130 130 130 -235 0 -235 0 -111 -111 -111
-111 -110 114 -111 113 -221 0 c-122 0 -227 4 -235 9 -11 7 -3 20 34 60 128
137 327 241 520 271 87 13 257 4 350 -20z"/>
<path d="M1466 1265 c-11 -30 -6 -36 27 -33 24 2 32 8 32 23 0 26 -49 34 -59
10z m42 -13 c2 -7 -3 -12 -12 -12 -9 0 -16 7 -16 16 0 17 22 14 28 -4z"/>
<path d="M1490 1160 c0 -11 -7 -20 -16 -20 -8 0 -13 -4 -10 -9 12 -18 46 1 46
25 0 13 -4 24 -10 24 -5 0 -10 -9 -10 -20z"/>
<path d="M1460 1050 c0 -25 4 -30 24 -30 32 0 45 20 14 21 -21 1 -21 2 -3 7
32 11 29 32 -5 32 -27 0 -30 -3 -30 -30z"/>
<path d="M1466 965 c-13 -36 -7 -46 27 -43 27 2 32 7 32 28 0 20 -6 26 -26 28
-17 2 -29 -3 -33 -13z"/>
<path d="M1476 855 c-9 -13 -16 -26 -16 -28 0 -2 18 -4 40 -5 44 -2 47 3 24
36 -19 28 -28 28 -48 -3z"/>
<path d="M1467 774 c-4 -4 -7 -18 -7 -31 0 -20 5 -23 36 -23 33 0 35 2 32 28
-2 20 -9 28 -28 30 -14 2 -29 0 -33 -4z"/>
<path d="M1465 671 c-3 -5 7 -12 22 -14 l28 -4 -27 -2 c-18 0 -28 -7 -28 -16
0 -17 16 -20 26 -4 4 8 9 8 17 0 6 -6 14 -11 18 -11 12 0 17 38 6 49 -13 13
-54 14 -62 2z"/>
<path d="M1460 551 c0 -17 5 -31 10 -31 6 0 10 11 10 24 0 14 -4 28 -10 31 -6
4 -10 -7 -10 -24z"/>
</g>
</svg>
